<?xml version="1.0" standalone="no"?>
<!DOCTYPE svg PUBLIC "-//W3C//DTD SVG 20010904//EN"
 "http://www.w3.org/TR/2001/REC-SVG-20010904/DTD/svg10.dtd">
<svg version="1.0" xmlns="http://www.w3.org/2000/svg"
 width="260.000000pt" height="260.000000pt" viewBox="0 0 260.000000 260.000000"
 preserveAspectRatio="xMidYMid meet">
<metadata>
Created by potrace 1.11, written by Peter Selinger 2001-2013
</metadata>
<g transform="translate(0.000000,260.000000) scale(0.100000,-0.100000)"
fill="#000000" stroke="none">
<path d="M829 1873 c-12 -15 -12 -16 1 -8 8 4 12 4 7 0 -4 -5 -18 -10 -30 -12
-17 -2 -19 -1 -7 7 11 7 11 10 2 10 -7 0 -15 -7 -18 -15 -4 -8 -14 -15 -23
-15 -14 0 -14 -2 -1 -10 13 -9 13 -10 0 -10 -9 0 -24 -10 -34 -22 -18 -20 -18
-21 0 -14 15 6 14 2 -6 -21 -14 -15 -18 -22 -10 -16 13 10 15 8 15 -11 -1 -12
-4 -27 -8 -33 -4 -7 -3 -14 3 -18 6 -4 7 -12 3 -18 -12 -20 -12 -57 0 -57 7 0
6 -4 -3 -10 -8 -5 -11 -10 -6 -10 5 0 3 -7 -4 -15 -11 -13 -10 -14 5 -9 15 6
16 4 6 -14 -14 -27 -14 -35 1 -26 7 5 8 3 3 -7 -12 -18 -14 -49 -4 -49 4 0 10
6 12 13 4 10 6 10 6 0 1 -7 6 -13 12 -13 5 0 7 5 4 11 -4 6 3 5 14 -3 18 -11
23 -11 31 2 6 10 10 11 10 3 0 -20 28 -15 39 5 7 13 6 23 -1 30 -9 9 -9 12 0
12 13 0 12 27 -2 49 -7 11 -5 13 9 7 18 -6 18 -6 -1 15 -10 12 -13 19 -6 15
10 -6 11 -1 6 20 -6 21 -4 25 7 19 11 -7 12 -6 2 6 -10 13 -11 29 -4 84 1 6 6
3 11 -5 5 -8 10 -10 10 -4 0 11 35 12 46 1 4 -4 13 -2 21 4 10 9 13 8 13 -1 0
-10 3 -10 15 0 10 9 15 9 15 1 0 -6 5 -11 11 -11 5 0 8 4 5 8 -3 5 7 8 22 6
15 -1 27 -3 27 -4 0 -7 36 -6 41 1 3 5 10 6 16 3 7 -4 8 -2 4 5 -6 9 -12 9
-24 -1 -15 -12 -16 -11 -3 5 7 9 21 17 30 18 12 0 11 2 -4 9 -11 5 -14 9 -7 9
8 1 10 6 5 14 -4 6 -8 17 -9 22 -1 6 -5 19 -10 30 -6 16 -3 15 15 -5 l22 -25
-15 26 c-9 14 -13 30 -9 35 5 5 -2 1 -14 -9 -21 -18 -21 -18 -26 0 -3 13 -5
12 -7 -7 -1 -23 -2 -23 -10 -5 -5 11 -9 14 -9 7 -1 -10 -6 -10 -22 -1 -17 9
-20 8 -14 -3 5 -7 5 -10 0 -6 -4 4 -15 2 -23 -5 -13 -9 -14 -9 -8 1 5 8 0 12
-13 13 -30 2 -34 3 -50 13 -10 7 -12 6 -6 -4 6 -9 2 -10 -15 -5 -14 5 -20 3
-16 -3 7 -12 -20 -10 -31 3 -4 4 -2 5 6 0 9 -5 12 -4 7 3 -9 15 -11 15 -27 -5z"/>
<path d="M1540 1882 c0 -6 -8 -9 -17 -6 -15 5 -16 4 -3 -5 16 -11 40 3 27 16
-4 3 -7 1 -7 -5z"/>
<path d="M1661 1875 c-1 -17 -3 -17 -11 -5 -7 11 -10 11 -10 2 0 -10 -5 -10
-20 -2 -14 8 -20 8 -20 0 0 -7 -6 -8 -19 -1 -14 8 -22 7 -31 -4 -9 -10 -18
-11 -37 -4 -24 9 -25 8 -12 -7 8 -9 12 -20 11 -23 -20 -33 -22 -41 -11 -41 6
0 3 -8 -8 -17 -10 -10 -14 -15 -9 -10 16 12 29 8 23 -7 -5 -12 3 -14 34 -13
21 2 39 -1 39 -5 0 -4 8 -8 18 -8 14 0 15 2 2 10 -8 5 -10 10 -4 10 6 0 14 -3
18 -7 10 -10 46 -11 40 -1 -3 4 0 8 5 8 6 0 11 -5 11 -11 0 -8 5 -8 15 1 11 9
15 9 15 1 0 -8 5 -9 19 -2 14 8 23 6 37 -11 19 -21 19 -21 -1 -14 -15 5 -17 4
-8 -5 6 -6 9 -18 6 -27 -5 -11 -3 -13 7 -7 9 6 11 4 5 -6 -12 -18 -14 -89 -3
-95 5 -3 5 -11 0 -17 -10 -15 -10 -27 2 -46 6 -10 5 -12 -2 -7 -17 10 -15 -3
2 -20 11 -11 16 -11 19 -1 4 9 6 9 6 0 1 -7 8 -13 17 -13 8 0 12 5 9 11 -4 6
3 5 14 -3 18 -11 23 -11 31 2 6 10 10 11 10 3 0 -7 5 -13 11 -13 6 0 9 6 6 14
-3 8 -1 17 6 20 9 3 9 5 0 5 -7 1 -10 8 -7 16 4 8 11 12 18 8 6 -4 5 1 -2 10
-8 9 -12 22 -9 29 2 7 0 21 -5 32 -7 13 -7 16 1 12 8 -5 9 4 5 31 -3 21 -8 41
-11 46 -2 4 3 10 12 13 14 6 14 8 -2 21 -10 8 -13 12 -6 9 7 -4 11 1 10 14 -1
11 -5 20 -10 20 -4 0 -5 5 -2 10 3 6 1 10 -4 10 -6 0 -11 7 -11 16 0 9 -5 12
-12 8 -7 -5 -9 0 -6 14 4 16 2 19 -10 15 -10 -4 -13 -2 -8 5 5 8 1 10 -10 5
-12 -5 -15 -3 -9 6 6 10 3 11 -13 2 -15 -8 -23 -8 -28 1 -5 7 -3 8 7 3 12 -8
12 -6 0 8 -16 20 -22 22 -18 6 3 -18 -43 -18 -53 0 -6 10 -10 11 -10 4 0 -7
-6 -13 -14 -13 -8 0 -17 6 -19 13 -3 6 -6 3 -6 -8z"/>
<path d="M1255 1620 c-3 -5 -13 -6 -22 -3 -9 4 -14 2 -11 -3 4 -5 -9 -9 -28
-8 -19 1 -31 -2 -28 -7 3 -5 -4 -9 -15 -9 -12 0 -31 -11 -43 -25 -12 -14 -27
-25 -34 -25 -7 0 -16 -5 -20 -12 -5 -7 -3 -8 6 -3 9 5 11 4 6 -3 -4 -7 -14
-12 -22 -12 -8 0 -12 -4 -9 -10 3 -5 3 -10 -2 -10 -4 0 -17 -13 -28 -28 -18
-25 -18 -26 0 -12 17 14 17 14 5 -7 -8 -12 -18 -19 -24 -16 -5 4 -7 -1 -3 -10
3 -9 2 -19 -4 -23 -5 -3 -7 -14 -4 -24 3 -10 0 -22 -6 -26 -8 -5 -9 -3 -4 6 5
8 4 11 -2 7 -11 -7 -11 -43 0 -53 11 -12 8 -26 -4 -18 -6 3 -3 -5 6 -20 17
-25 17 -26 -1 -19 -16 6 -17 5 -4 -9 8 -9 20 -13 25 -10 6 2 4 -1 -2 -9 -15
-16 -17 -33 -3 -24 6 4 10 -5 10 -19 0 -14 5 -26 11 -26 5 0 7 -5 3 -12 -5 -7
-2 -9 8 -6 11 5 14 0 12 -18 -1 -13 2 -24 8 -24 14 0 38 -26 31 -34 -4 -3 1
-6 10 -6 9 0 17 -4 17 -10 0 -5 10 -10 23 -10 18 0 19 -2 7 -10 -12 -8 -9 -10
13 -10 16 0 26 -4 22 -10 -4 -6 7 -10 24 -10 17 0 31 -4 31 -9 0 -11 19 -9 39
3 10 7 13 5 9 -5 -4 -10 3 -14 23 -14 15 -1 25 3 23 7 -3 4 2 8 11 8 10 0 14
-5 10 -12 -4 -7 1 -4 9 6 11 14 16 15 16 6 0 -11 3 -11 12 -2 9 9 15 9 25 0
11 -9 13 -8 11 2 -2 7 3 15 11 18 10 3 11 0 5 -9 -7 -12 -5 -12 9 0 9 7 14 18
10 24 -4 6 0 8 9 5 8 -4 27 4 43 18 15 13 32 24 37 24 4 0 7 6 6 13 -2 6 2 11
8 10 7 -1 15 9 18 23 4 16 12 24 20 21 9 -4 11 2 8 19 -3 17 2 29 13 38 12 9
18 26 18 52 0 21 5 42 11 46 8 5 7 8 -1 8 -8 0 -11 12 -8 33 5 40 -3 69 -17
61 -7 -4 -8 -2 -4 5 4 6 2 19 -5 27 -6 8 -9 17 -6 20 5 6 -1 15 -31 49 -7 8
-10 20 -6 26 4 8 3 9 -4 5 -7 -4 -12 -2 -12 3 0 6 -10 11 -21 11 -19 0 -20 2
-8 17 10 11 10 14 2 9 -7 -4 -13 -2 -13 3 0 6 -9 11 -21 11 -13 0 -18 4 -13
12 4 7 3 8 -5 4 -6 -4 -19 1 -29 11 -9 11 -13 13 -8 6 12 -18 1 -16 -18 3 -11
10 -16 11 -16 3 0 -7 -8 -5 -20 6 -20 18 -21 18 -15 -1 6 -18 6 -18 -8 -1 -9
11 -16 14 -19 7 -2 -8 -11 -8 -30 -1 -16 6 -30 7 -33 1z m13 -211 c5 -11 11
-20 15 -20 22 3 27 0 21 -11 -5 -8 -2 -9 10 -5 10 4 15 3 11 -3 -3 -5 6 -12
20 -16 14 -3 22 -11 18 -17 -4 -6 0 -8 10 -4 11 4 14 2 10 -9 -5 -13 7 -18 32
-15 6 1 0 -7 -12 -18 -12 -10 -19 -22 -15 -26 4 -4 -3 -6 -14 -3 -16 4 -25 -1
-35 -19 -7 -13 -18 -22 -25 -19 -8 3 -11 0 -8 -8 3 -8 0 -17 -7 -22 -8 -5 -10
-3 -5 7 4 8 -1 4 -12 -8 -17 -19 -21 -20 -36 -7 -9 8 -11 9 -6 2 6 -7 10 -17
10 -23 0 -5 -7 -1 -15 9 -8 10 -12 23 -8 29 3 5 -1 13 -8 18 -11 7 -10 9 4 9
9 0 17 5 17 11 0 5 -4 8 -8 5 -4 -2 -9 4 -9 15 -1 10 3 19 8 19 6 0 7 -5 3
-12 -5 -7 -3 -8 6 -3 10 6 9 11 -5 22 -11 7 -13 13 -7 13 10 0 10 5 1 22 -10
18 -9 20 5 15 10 -4 15 -3 11 3 -3 6 -14 10 -23 10 -15 1 -15 2 1 11 13 8 15
14 7 24 -13 16 -3 45 16 45 8 0 18 -9 22 -21z m102 -163 c0 -2 -7 -7 -16 -10
-8 -3 -12 -2 -9 4 6 10 25 14 25 6z m240 -40 c0 -3 -4 -8 -10 -11 -5 -3 -10
-1 -10 4 0 6 5 11 10 11 6 0 10 -2 10 -4z"/>
<path d="M722 1079 c-10 -15 -9 -19 0 -19 8 0 9 -3 3 -8 -14 -10 -18 -42 -5
-42 5 0 10 -5 10 -11 0 -5 -4 -8 -9 -4 -6 3 -9 -4 -8 -15 1 -11 6 -20 12 -20
5 0 3 -4 -5 -10 -8 -5 -11 -12 -7 -16 4 -4 2 -13 -5 -21 -9 -11 -7 -12 8 -6
16 6 17 5 6 -9 -9 -12 -10 -18 -2 -23 8 -5 8 -11 -1 -21 -8 -10 -8 -18 0 -27
8 -10 7 -17 -1 -25 -9 -9 -9 -12 1 -12 7 0 9 -4 6 -10 -4 -6 1 -7 11 -3 11 4
15 3 11 -4 -10 -16 3 -43 19 -43 8 0 14 -4 14 -10 0 -5 7 -10 16 -10 8 0 12
-5 8 -11 -4 -7 1 -7 16 1 18 10 24 9 31 -1 6 -9 12 -10 17 -4 9 13 32 18 32 7
0 -11 31 -9 49 2 8 5 17 3 22 -5 7 -12 10 -12 18 -1 10 16 9 16 43 3 18 -7 29
-7 34 0 4 6 11 6 20 -2 8 -6 17 -9 21 -5 3 3 1 6 -6 6 -7 0 -9 5 -6 10 4 6 11
7 17 4 7 -5 7 -1 0 12 -8 14 -6 21 5 30 13 9 13 13 3 19 -9 6 -11 4 -5 -5 6
-9 4 -11 -5 -5 -10 6 -9 11 6 23 12 9 13 13 4 10 -9 -3 -25 8 -37 26 -20 26
-29 24 -24 -7 1 -4 -7 -3 -17 2 -20 11 -40 10 -61 -3 -9 -6 -12 -5 -8 0 3 6
-3 15 -13 22 -16 10 -18 9 -14 -2 4 -11 0 -13 -17 -9 -17 5 -20 3 -14 -7 5 -9
4 -11 -4 -6 -9 6 -9 11 0 22 10 12 9 13 -5 8 -9 -3 -16 -10 -16 -14 0 -5 -9
-6 -20 -3 -17 5 -18 8 -8 21 11 13 11 14 -1 7 -11 -6 -13 -3 -9 13 4 12 2 22
-4 22 -5 0 -6 5 -3 10 4 6 12 7 18 3 7 -3 3 4 -8 17 -11 13 -15 21 -10 18 6
-4 10 23 10 72 0 43 -2 78 -5 78 -3 0 -7 1 -10 2 -15 6 -60 5 -60 -2 0 -4 -10
-4 -23 1 -18 7 -26 5 -35 -10z"/>
<path d="M1780 1087 c0 -5 -4 -6 -9 -3 -5 3 -11 -1 -15 -9 -3 -8 0 -15 7 -15
7 0 8 -3 2 -8 -16 -11 -17 -34 -3 -44 11 -6 10 -10 -1 -17 -12 -8 -12 -12 -2
-24 8 -11 9 -17 1 -22 -8 -5 -7 -11 2 -23 11 -13 11 -14 0 -8 -16 10 -13 -25
3 -36 6 -5 5 -8 -3 -8 -8 0 -11 -9 -8 -26 5 -26 5 -26 -15 -8 -19 17 -20 17
-13 -2 4 -10 4 -16 -1 -12 -4 4 -15 2 -23 -5 -13 -10 -14 -9 -8 1 6 9 1 12
-16 10 -12 -2 -29 -7 -35 -11 -12 -8 -17 -2 -15 15 1 3 -5 9 -13 12 -9 3 -12
0 -8 -10 6 -16 -5 -18 -27 -4 -10 6 -20 4 -31 -6 -12 -11 -19 -12 -24 -4 -3 6
-1 9 6 8 6 -2 14 4 16 12 3 10 2 11 -4 4 -4 -6 -15 -10 -24 -9 -12 2 -15 -3
-11 -18 4 -14 2 -18 -7 -12 -10 6 -11 3 -2 -13 14 -26 14 -35 1 -27 -5 3 -10
2 -10 -4 0 -5 6 -12 13 -14 10 -4 10 -6 0 -6 -19 -1 -16 -28 3 -35 15 -6 15
-4 3 11 -12 16 -11 15 8 -1 13 -11 31 -16 43 -13 11 3 20 1 20 -4 0 -5 8 -9
18 -9 14 0 15 2 2 10 -8 5 -10 10 -4 10 6 0 14 -3 18 -7 10 -10 46 -11 40 -1
-3 4 0 8 5 8 6 0 11 -4 11 -10 0 -5 5 -10 11 -10 5 0 7 6 3 13 -5 9 -4 9 6 0
9 -9 19 -9 33 -2 11 6 17 7 14 2 -4 -5 0 -10 8 -10 8 0 12 4 9 9 -3 4 0 8 5 8
6 0 11 -4 11 -10 0 -15 51 8 76 35 13 14 20 25 16 26 -4 0 3 4 16 9 20 8 21
13 11 31 -6 12 -7 19 -1 16 5 -4 9 10 8 33 -1 22 -5 40 -9 40 -5 0 -5 5 -2 10
4 6 12 7 18 3 7 -3 3 4 -8 17 -11 13 -15 21 -9 17 7 -4 11 7 10 33 -1 22 -5
40 -11 40 -5 0 -1 7 9 15 11 8 15 15 9 15 -6 0 -10 11 -8 25 1 14 0 23 -3 20
-3 -2 -11 0 -19 6 -9 9 -13 8 -13 0 0 -6 -5 -11 -11 -11 -5 0 -8 3 -6 8 3 4
-10 7 -29 7 -19 0 -34 -4 -34 -8z"/>
<path d="M1639 833 c-12 -16 -12 -17 2 -6 9 7 20 9 24 5 5 -4 5 -1 1 6 -9 16
-11 15 -27 -5z"/>
<path d="M1080 837 c0 -2 6 -10 14 -16 11 -9 16 -9 22 1 4 7 4 10 -1 6 -4 -4
-14 -3 -22 3 -7 6 -13 9 -13 6z"/>
</g>
</svg>
